# xmcd
#
# Track frame offsets:
# 150
# 14845
# 32999
# 48614
# 61866
# 77453
# 98066
# 110116
# 126440
# 143021
# 156771
# 175033
#
# Disc length: 2513 seconds
#
# Revision: 0
# Processed by: cddbd v1.5.1PL0 Copyright (c) Steve Scherf et al.
# Submitted via: Audion 3.0.2 (http://www.panic.com/audion/)
#
DISCID=a109cf0c
DTITLE=James Taylor - James Taylor
DYEAR=1900
DGENRE=
TTITLE0=Something in the Way She Moves
TTITLE1=Carolina in My Mind
TTITLE2=Fire and Rain
TTITLE3=Sweet Baby James
TTITLE4=Country Road
TTITLE5=You've Got a Friend
TTITLE6=Don't Let Me Be Lonely Tonight
TTITLE7=Walking Man
TTITLE8=How Sweet It Is
TTITLE9=Mexico
TTITLE10=Shower the People
TTITLE11=Steamroller
EXTD=
EXTT0=
EXTT1=
EXTT2=
EXTT3=
EXTT4=
EXTT5=
EXTT6=
EXTT7=
EXTT8=
EXTT9=
EXTT10=
EXTT11=
PLAYORDER=
